#!OML:ASF I:\Actors\actors\Patient Classification 1\Patient 1\Session 1\Subject1.ASF
:FULLY-SPECIFIED
:DEGREES
959
root 0.535884 17.4738 9.31863 7.80055 -0.652492 -9.51129
lowerback -2.73381 -0.308408 5.27639
upperback -7.74282 -0.153461 3.85324
thorax -6.56357 -0.260135 1.08743
lowerneck -13.4915 -3.41536 -2.23302
upperneck 28.4271 -5.93775 5.07482
head 11.7485 -2.30329 1.42714
rclavicle 3.6154e-015 7.95139e-015
rhumerus -22.7787 26.5166 -90.7128
rradius 95.5468
rwrist 26.1937
rhand 30.7122 -38.1638
rfingers 7.12502
rthumb 54.3461 -56.7651
lclavicle 3.6154e-015 7.95139e-015
lhumerus -22.5806 -24.9368 98.0285
lradius 86.8953
lwrist -31.4209
lhand -18.7634 -26.3719
lfingers 7.12502
lthumb 7.53349 3.47393
rfemur -3.97684 20.124 27.1536
rtibia 6.68479
rfoot -13.8715 -23.4538
rtoes 1.21044
lfemur 7.81429 -44.3321 -12.9566
ltibia -4.68843
lfoot -24.4003 52.6318
ltoes 12.5861
960
root 0.528551 17.4736 9.32228 7.73515 -0.22539 -9.5811
lowerback -2.68935 -0.29855 5.28609
upperback -7.79454 -0.131996 3.8464
thorax -6.64498 -0.251289 1.07602
lowerneck -13.5212 -3.59398 -2.5484
upperneck 28.4141 -6.17282 5.27813
head 11.7792 -2.41662 1.52231
rclavicle 5.56597e-015 -3.08116e-014
rhumerus -22.9001 25.9032 -90.3758
rradius 95.9776
rwrist 26.4994
rhand 30.9436 -38.5712
rfingers 7.12502
rthumb 54.5532 -57.0282
lclavicle 5.56597e-015 -3.08116e-014
lhumerus -22.402 -25.3131 97.9078
lradius 86.7764
lwrist -31.2842
lhand -19.1626 -26.0345
lfingers 7.12502
lthumb 7.14819 3.82478
rfemur -3.80484 20.145 27.3328
rtibia 6.56999
rfoot -14.0191 -23.7976
rtoes 1.83595
lfemur 7.5957 -44.1758 -12.6373
ltibia -4.65811
lfoot -23.7567 52.2152
ltoes 12.1086
961
root 0.520962 17.474 9.32577 7.67797 0.23808 -9.65008
lowerback -2.67686 -0.317214 5.23666
upperback -7.83487 -0.151275 3.87168
thorax -6.69566 -0.257338 1.13174
lowerneck -13.4453 -3.70924 -2.57933
upperneck 28.3344 -6.31467 5.24318
head 11.7393 -2.49044 1.49478
rclavicle 1.21134e-014 -6.55989e-015
rhumerus -22.9032 25.6957 -89.8675
rradius 96.3156
rwrist 26.7036
rhand 30.5652 -38.762
rfingers 7.12502
rthumb 54.2143 -57.454
lclavicle 1.21134e-014 -6.55989e-015
lhumerus -22.2411 -25.5411 97.8079
lradius 86.7413
lwrist -30.9502
lhand -18.8563 -26.1785
lfingers 7.12502
lthumb 7.44386 3.67051
rfemur -3.62521 20.1363 27.5151
rtibia 6.43553
rfoot -14.141 -24.1782
rtoes 2.19249
lfemur 7.39686 -44.1362 -12.3363
ltibia -4.64975
lfoot -22.9372 51.9035
ltoes 11.235
962
root 0.513158 17.4744 9.33156 7.57941 0.771509 -9.69418
lowerback -2.65776 -0.35713 5.17792
upperback -7.84171 -0.201187 3.8852
thorax -6.71414 -0.277618 1.18048
lowerneck -13.4566 -3.88254 -2.83525
upperneck 28.2713 -6.52792 5.35964
head 11.7416 -2.59963 1.55024
rclavicle -1.64246e-014 5.03919e-014
rhumerus -22.7428 25.7963 -89.1953
rradius 96.5106
rwrist 26.7654
rhand 29.5089 -38.5522
rfingers 7.12502
rthumb 53.2649 -57.8754
lclavicle -1.64246e-014 5.03919e-014
lhumerus -22.0892 -25.8468 97.8041
lradius 86.7573
lwrist -30.8551
lhand -18.642 -26.1015
lfingers 7.12502
lthumb 7.6507 3.74012
rfemur -3.35076 20.1238 27.7012
rtibia 6.23636
rfoot -14.2996 -24.6568
rtoes 2.52809
lfemur 7.34943 -44.348 -12.1771
ltibia -4.6825
lfoot -22.3057 51.7193
ltoes 10.4123
963
root 0.505975 17.4735 9.33805 7.49354 1.34497 -9.72606
lowerback -2.62631 -0.402275 5.18354
upperback -7.84566 -0.258142 3.86326
thorax -6.73771 -0.306678 1.15668
lowerneck -13.5413 -4.01657 -3.04088
upperneck 28.2312 -6.70022 5.48525
head 11.7654 -2.68163 1.60517
rclavicle 1.0635e-014 -3.67752e-014
rhumerus -22.3656 26.1523 -88.415
rradius 96.5682
rwrist 26.6604
rhand 27.7743 -38.0432
rfingers 7.12502
rthumb 51.6952 -58.3281
lclavicle 1.0635e-014 -3.67752e-014
lhumerus -21.8683 -26.3235 97.7997
lradius 86.7057
lwrist -31.1821
lhand -19.1467 -25.7104
lfingers 7.12502
lthumb 7.16352 4.14836
rfemur -3.09018 20.0782 27.8628
rtibia 6.02665
rfoot -14.4855 -25.1268
rtoes 3.17241
lfemur 7.25535 -44.5806 -12.0023
ltibia -4.7093
lfoot -21.7468 51.5046
ltoes 9.81203
964
root 0.500112 17.4724 9.34167 7.4289 1.86803 -9.71855
lowerback -2.53269 -0.456697 5.12638
upperback -7.86242 -0.321394 3.86866
thorax -6.81003 -0.334821 1.198
lowerneck -13.7171 -4.11646 -3.21688
upperneck 28.2558 -6.81364 5.54512
head 11.8266 -2.73893 1.63785
rclavicle -8.72168e-015 2.22639e-014
rhumerus -22.0414 26.5733 -87.6088
rradius 96.5794
rwrist 26.6653
rhand 25.6332 -36.7792
rfingers 7.12502
rthumb 49.7419 -58.1364
lclavicle -8.72168e-015 2.22639e-014
lhumerus -21.5956 -26.726 97.7781
lradius 86.7
lwrist -31.1917
lhand -19.4019 -25.7188
lfingers 7.12502
lthumb 6.91715 4.14818
rfemur -2.90125 19.9997 27.9464
rtibia 5.86044
rfoot -14.6452 -25.5205
rtoes 3.65914
lfemur 7.0357 -44.5866 -11.7928
ltibia -4.68993
lfoot -21.0476 51.1349
ltoes 9.18841
965
root 0.495335 17.4723 9.34348 7.36047 2.30259 -9.70278
lowerback -2.39823 -0.512402 5.02165
upperback -7.87156 -0.382615 3.91483
thorax -6.8966 -0.35762 1.30918
lowerneck -13.8794 -4.192 -3.47041
upperneck 28.2495 -6.88448 5.65773
head 11.8761 -2.77958 1.7096
rclavicle 1.67476e-014 -5.97845e-014
rhumerus -21.607 27.1921 -86.7478
rradius 96.3741
rwrist 26.8187
rhand 23.1707 -34.6633
rfingers 7.12502
rthumb 47.4766 -57.1167
lclavicle 1.67476e-014 -5.97845e-014
lhumerus -21.397 -26.9844 97.8036
lradius 86.8092
lwrist -30.8078
lhand -19.1848 -26.3225
lfingers 7.12502
lthumb 7.12674 3.53753
rfemur -2.73827 19.8924 28.0016
rtibia 5.71717
rfoot -14.7444 -25.8356
rtoes 3.82807
lfemur 6.89464 -44.6342 -11.6654
ltibia -4.67992
lfoot -20.562 50.8465
ltoes 8.75054
966
root 0.493457 17.4724 9.34414 7.3139 2.62513 -9.71457
lowerback -2.29756 -0.5511 5.0085
upperback -7.85535 -0.424175 3.9612
thorax -6.93751 -0.375662 1.368
lowerneck -13.9647 -4.21686 -3.71696
upperneck 28.1272 -6.88374 5.79695
head 11.8611 -2.78764 1.80118
rclavicle -1.30949e-014 2.79292e-014
rhumerus -20.7932 28.2524 -85.8416
rradius 95.8343
rwrist 26.7763
rhand 20.7275 -32.487
rfingers 7.12502
rthumb 45.2122 -55.9025
lclavicle -1.30949e-014 2.79292e-014
lhumerus -21.3055 -27.2078 97.8256
lradius 86.9488
lwrist -30.5246
lhand -19.1001 -26.903
lfingers 7.12502
lthumb 7.2085 2.95424
rfemur -2.63755 19.7487 28.0482
rtibia 5.60889
rfoot -14.7727 -26.0138
rtoes 3.74274
lfemur 6.89051 -44.9225 -11.6302
ltibia -4.71159
lfoot -20.4888 50.8586
ltoes 8.56178
967
root 0.494223 17.4726 9.34127 7.29772 2.72264 -9.76498
lowerback -2.1675 -0.532561 5.13592
upperback -7.84794 -0.384811 3.98719
thorax -7.00674 -0.363726 1.32516
lowerneck -14.0179 -4.20732 -3.86903
upperneck 28.0128 -6.82774 5.8315
head 11.831 -2.77452 1.84637
rclavicle -6.79595e-015 1.82882e-014
rhumerus -19.6491 29.7787 -84.9647
rradius 95.0077
rwrist 26.2421
rhand 18.4955 -30.6683
rfingers 7.12502
rthumb 43.1311 -54.8677
lclavicle -6.79595e-015 1.82882e-014
lhumerus -21.3318 -27.4532 97.7891
lradius 87.0623
lwrist -30.6043
lhand -19.2713 -26.8622
lfingers 7.12502
lthumb 7.04323 3.00061
rfemur -2.66326 19.6379 28.0848
rtibia 5.62059
rfoot -14.7312 -26.0101
rtoes 3.53019
lfemur 7.04999 -45.4163 -11.7049
ltibia -4.78168
lfoot -20.857 51.2402
ltoes 8.7447
968
root 0.495508 17.4733 9.33504 7.32546 2.52581 -9.82379
lowerback -2.01436 -0.4381 5.31648
upperback -7.84977 -0.24094 3.99829
thorax -7.0985 -0.304588 1.23334
lowerneck -14.112 -4.1972 -3.98996
upperneck 27.983 -6.75493 5.76794
head 11.8359 -2.76068 1.85214
rclavicle -2.34814e-015 -2.5842e-014
rhumerus -18.053 31.6989 -84.0751
rradius 93.9254
rwrist 25.2653
rhand 16.9481 -29.4341
rfingers 7.12502
rthumb 41.6821 -54.1297
lclavicle -2.34814e-015 -2.5842e-014
lhumerus -21.4066 -27.7016 97.6793
lradius 87.168
lwrist -30.9708
lhand -19.5617 -26.4345
lfingers 7.12502
lthumb 6.76289 3.43753
rfemur -2.81605 19.6267 28.0873
rtibia 5.75128
rfoot -14.6539 -25.8287
rtoes 3.39683
lfemur 7.36537 -46.0241 -11.9151
ltibia -4.87786
lfoot -21.5233 51.9285
ltoes 9.36349
